<svg width="16" height="20" viewBox="0 0 16 20" fill="none" xmlns="http://www.w3.org/2000/svg">
<path d="M4.38439 0.479246C4.90949 0.320927 5.47298 0.347229 5.98104 0.553775C6.48911 0.76032 6.91111 1.13465 7.1768 1.61445L7.26679 1.79325L8.05999 3.55845C8.30108 4.09423 8.37934 4.68906 8.28504 5.26897C8.19074 5.84888 7.92803 6.38826 7.52959 6.82005L7.37119 6.97845L6.11839 8.14605C5.8928 8.35965 6.06199 9.18645 6.87919 10.6C7.61239 11.872 8.21119 12.466 8.50399 12.4984H8.55559L8.61919 12.4864L11.0792 11.734C11.4098 11.6327 11.7626 11.6286 12.0955 11.7225C12.4283 11.8163 12.727 12.0041 12.956 12.2632L13.0664 12.4012L14.6936 14.6572C15.0129 15.0993 15.1721 15.6369 15.1451 16.1816C15.118 16.7262 14.9063 17.2454 14.5448 17.6536L14.3984 17.8048L13.7468 18.4216C13.1627 18.9748 12.4322 19.3485 11.6419 19.4985C10.8516 19.6485 10.0349 19.5683 9.28879 19.2676C6.96679 18.3316 4.85719 16.1932 2.94079 12.874C1.02079 9.54645 0.222795 6.64605 0.579195 4.16205C0.687148 3.41103 0.996527 2.70328 1.47446 2.114C1.9524 1.52471 2.58104 1.0759 3.2936 0.815246L3.52519 0.738447L4.38439 0.479246Z" fill="white"/>
</svg>
